<?xml version="1.0" standalone="no"?>
<!DOCTYPE svg PUBLIC "-//W3C//DTD SVG 20010904//EN"
 "http://www.w3.org/TR/2001/REC-SVG-20010904/DTD/svg10.dtd">
<svg version="1.0" xmlns="http://www.w3.org/2000/svg"
 width="512.000000pt" height="512.000000pt" viewBox="0 0 512.000000 512.000000"
 preserveAspectRatio="xMidYMid meet">

<g transform="translate(0.000000,512.000000) scale(0.100000,-0.100000)"
fill="#000000" stroke="none">
<path d="M2342 5049 c-1147 -102 -2086 -986 -2252 -2122 -116 -788 143 -1568
706 -2132 585 -584 1407 -840 2218 -690 222 41 406 101 627 203 118 54 144 97
98 157 -30 37 -65 31 -209 -35 -303 -139 -633 -210 -972 -210 -1194 0 -2195
902 -2328 2095 -13 116 -13 374 0 490 94 845 634 1576 1410 1908 174 74 323
118 540 158 138 26 455 36 610 20 1385 -145 2338 -1438 2064 -2800 -33 -163
-92 -345 -167 -509 -60 -133 -60 -134 -44 -168 18 -38 54 -52 96 -38 53 18
180 323 245 584 54 220 70 352 70 595 0 212 -9 317 -45 495 -105 521 -378
1001 -772 1358 -291 264 -640 458 -1007 558 -292 80 -598 109 -888 83z"/>
<path d="M1680 3779 c-167 -26 -312 -99 -436 -223 -91 -91 -149 -185 -191
-311 -24 -72 -27 -95 -27 -225 -1 -125 2 -155 22 -220 31 -96 68 -170 125
-245 25 -33 340 -354 699 -712 613 -613 656 -653 688 -653 32 0 75 40 688 652
359 359 673 679 698 712 53 70 107 178 130 261 24 88 29 264 11 352 -19 85
-53 173 -98 251 -47 80 -180 210 -264 260 -261 153 -581 141 -835 -31 -25 -17
-109 -94 -187 -171 l-143 -140 -142 140 c-157 154 -203 189 -313 240 -127 58
-292 83 -425 63z"/>
<path d="M4229 1421 c-24 -19 -24 -21 -27 -255 l-3 -235 -235 -3 c-234 -3
-236 -3 -255 -27 -26 -32 -24 -77 6 -106 l24 -25 230 0 230 0 3 -236 c3 -234
3 -236 27 -255 32 -26 77 -24 106 6 l25 24 0 231 0 230 229 0 c216 0 230 1
255 21 32 25 35 75 7 110 -19 24 -21 24 -255 27 l-236 3 0 230 0 230 -25 24
c-29 30 -74 32 -106 6z"/>
</g>
</svg>
